<?xml version="1.0" standalone="no"?>
<!DOCTYPE svg PUBLIC "-//W3C//DTD SVG 20010904//EN"
 "http://www.w3.org/TR/2001/REC-SVG-20010904/DTD/svg10.dtd">
<svg version="1.0" xmlns="http://www.w3.org/2000/svg"
 width="596.000000pt" height="596.000000pt" viewBox="0 0 596.000000 596.000000"
 preserveAspectRatio="xMidYMid meet">
<metadata>
Created by potrace 1.14, written by Peter Selinger 2001-2017
</metadata>
<g transform="translate(0.000000,596.000000) scale(0.100000,-0.100000)"
fill="#000000" stroke="none">
<path d="M2875 5196 c-298 -49 -505 -173 -429 -257 14 -16 13 -18 -18 -24 -18
-4 -39 -12 -45 -17 -9 -8 -13 -6 -13 4 0 24 -86 79 -131 84 -22 3 -57 0 -77
-7 -53 -16 -162 -70 -162 -80 0 -4 -8 -10 -18 -13 -23 -8 -52 -89 -59 -166 -7
-79 17 -160 63 -205 l33 -33 -20 -52 c-25 -67 -38 -170 -29 -238 6 -45 3 -58
-14 -80 -20 -25 -20 -26 -1 -18 18 6 17 5 -3 -17 -25 -27 -29 -42 -7 -33 11 4
8 -8 -10 -44 -13 -26 -20 -50 -15 -52 7 -2 7 -15 1 -36 -6 -20 -6 -32 0 -32 5
0 2 -16 -6 -36 -19 -45 -19 -45 1 -37 13 5 15 2 8 -18 -4 -13 -9 -36 -10 -51
-1 -14 -5 -32 -10 -39 -5 -9 -2 -10 9 -6 20 7 22 -9 7 -47 -7 -20 -6 -26 4
-26 9 0 12 -8 8 -25 -2 -15 0 -25 7 -25 7 0 11 -21 11 -52 0 -38 3 -49 10 -38
8 12 10 10 10 -9 0 -16 -4 -22 -15 -17 -9 3 -15 0 -15 -10 0 -11 -6 -13 -20
-9 -18 6 -20 3 -15 -17 8 -32 -26 -64 -66 -60 -32 4 -34 0 -19 -28 9 -16 6
-21 -14 -26 -14 -3 -30 -3 -35 1 -15 9 -14 -8 1 -23 10 -10 10 -15 -1 -21 -7
-5 -10 -14 -6 -21 12 -19 -22 -48 -51 -42 -23 4 -24 2 -19 -21 4 -13 2 -28 -3
-31 -6 -3 -8 -15 -5 -26 4 -16 0 -20 -21 -20 -23 0 -25 -2 -16 -24 8 -21 6
-25 -13 -28 -12 -2 -26 -13 -32 -25 -9 -21 -16 -22 -161 -25 l-152 -3 -39 -31
c-21 -16 -47 -48 -58 -70 -20 -38 -20 -56 -17 -952 3 -1014 -3 -941 72 -1005
l41 -35 -27 -6 c-24 -6 -25 -8 -11 -24 11 -12 14 -30 11 -58 -4 -32 -1 -43 11
-48 13 -5 15 -13 10 -38 -4 -18 -13 -41 -19 -50 -8 -14 -8 -21 2 -27 11 -7 9
-16 -7 -47 -12 -22 -21 -57 -21 -81 l0 -43 -184 0 c-180 0 -186 -1 -212 -23
-23 -20 -28 -34 -32 -85 l-4 -61 -38 -6 c-89 -15 -87 -76 2 -94 241 -49 1257
-76 2543 -68 862 6 1217 14 1560 37 285 20 355 35 355 81 0 22 -51 49 -95 49
-24 0 -25 3 -25 56 0 48 -4 59 -29 85 -28 28 -34 29 -116 29 -79 0 -86 2 -80
18 4 9 9 24 12 32 2 9 27 26 54 39 37 16 58 35 80 69 39 62 45 102 24 160 -19
49 -85 122 -110 122 -10 0 -15 11 -15 36 0 26 -8 43 -29 65 l-29 29 -141 0
-140 0 -1 905 c0 497 -3 912 -7 922 -13 37 -55 84 -93 103 -34 17 -59 20 -185
20 -129 0 -147 2 -164 19 -12 12 -16 22 -9 29 6 6 -3 12 -26 16 -43 8 -74 57
-50 77 18 15 18 29 -1 29 -8 0 -15 5 -15 10 0 6 -11 10 -25 10 -22 0 -24 3
-15 19 13 25 13 54 0 46 -5 -3 -20 -3 -34 1 -22 5 -24 9 -15 26 14 26 -6 51
-34 42 -15 -5 -19 -3 -14 9 3 8 0 23 -8 34 -14 20 -9 113 6 113 5 0 9 23 9 50
0 28 4 50 9 50 6 0 6 12 1 31 -8 27 -7 29 7 18 14 -12 15 -9 8 30 -6 38 -5 43
9 38 16 -6 22 4 9 16 -3 4 -7 17 -8 30 -1 12 -5 35 -10 51 -6 21 -5 27 4 22
16 -10 14 10 -5 46 -10 20 -11 28 -3 22 9 -5 10 -2 5 12 -13 31 -26 87 -26
117 0 19 5 27 17 27 14 0 14 2 -2 20 -17 19 -31 90 -17 90 21 0 20 253 -2 323
-14 46 -13 51 6 89 17 32 21 58 21 131 -1 149 -27 194 -150 257 -75 38 -143
46 -187 22 -17 -9 -34 -15 -37 -14 -4 1 -18 -9 -32 -22 -25 -24 -26 -24 -56
-5 -32 19 -51 53 -70 125 -15 55 -74 108 -143 129 -72 22 -280 28 -383 11z
m-261 -895 c3 -5 0 -13 -7 -18 -17 -14 -106 -35 -118 -28 -20 13 -7 23 49 38
72 19 70 19 76 8z m683 -11 c44 -11 60 -24 44 -35 -12 -7 -101 14 -118 28 -17
12 -6 29 15 23 10 -3 36 -10 59 -16z m-658 -106 c27 -34 27 -62 -1 -91 -43
-46 -118 -16 -118 47 0 65 79 94 119 44z m671 6 c11 -11 20 -33 20 -50 0 -17
-9 -39 -20 -50 -43 -43 -120 -11 -120 50 0 60 78 92 120 50z m-265 -120 c73
-71 143 -303 152 -506 7 -160 -7 -213 -76 -277 -141 -132 -385 -82 -447 90
-39 110 16 466 96 624 43 82 126 126 209 108 18 -4 48 -22 66 -39z m813 -689
c-15 -5 -19 4 -11 24 6 18 7 18 13 -1 4 -10 3 -21 -2 -23z m609 -461 c67 -40
63 15 63 -981 l0 -901 -39 -39 -39 -39 -579 0 -579 0 -33 135 c-54 219 -63
225 -366 225 -183 0 -215 -3 -250 -19 -72 -33 -71 -32 -140 -319 l-5 -22 -590
0 -590 0 -38 34 -37 34 -3 909 c-2 896 -2 908 18 941 40 65 -67 61 1630 62
1515 0 1546 0 1577 -20z m-1348 -1676 c22 -8 43 -23 46 -32 4 -9 38 -141 75
-292 l67 -275 -405 -3 c-223 -1 -407 0 -409 2 -7 7 129 560 141 575 26 33 69
40 258 41 148 0 196 -3 227 -16z m1741 -269 c8 -10 10 -29 6 -55 -6 -37 -4
-40 21 -46 95 -23 144 -132 92 -205 -24 -35 -52 -51 -99 -58 -31 -6 -35 -10
-41 -46 -11 -69 -28 -75 -209 -75 l-158 0 -30 30 c-32 31 -35 47 -47 200 -3
41 -8 96 -11 121 l-5 46 57 12 c42 10 68 23 98 52 l41 38 136 1 c110 0 139 -3
149 -15z m-3305 -371 c38 -16 55 -40 55 -79 0 -36 -19 -40 -165 -37 -123 3
-126 4 -137 28 -16 35 15 73 78 96 54 20 110 17 169 -8z m2079 -40 c20 -19 20
-48 2 -67 -12 -12 -132 -13 -808 -9 -569 3 -795 8 -800 16 -12 18 -9 44 8 60
14 14 100 16 799 16 699 0 785 -2 799 -16z m746 -76 c0 -6 -7 -5 -15 2 -8 7
-15 17 -15 22 0 6 7 5 15 -2 8 -7 15 -17 15 -22z m658 -80 c7 -7 12 -36 12
-65 0 -41 -4 -54 -19 -63 -13 -7 -677 -10 -2075 -10 -1854 0 -2056 2 -2070 16
-18 18 -21 85 -6 115 11 19 44 19 2078 19 1595 0 2071 -3 2080 -12z"/>
<path d="M2580 4130 c0 -11 7 -20 15 -20 8 0 15 9 15 20 0 11 -7 20 -15 20 -8
0 -15 -9 -15 -20z"/>
<path d="M3242 4128 c2 -13 10 -23 18 -23 8 0 16 10 18 23 3 17 -2 22 -18 22
-16 0 -21 -5 -18 -22z"/>
<path d="M2799 3539 c-16 -16 -20 -28 -15 -52 10 -51 76 -107 126 -107 30 0
26 -38 -6 -50 -32 -13 -74 8 -104 50 -12 17 -25 29 -28 25 -9 -9 69 -83 95
-90 15 -3 34 0 46 8 18 12 25 11 57 -7 32 -17 41 -18 68 -7 17 7 44 30 59 50
l27 36 -47 -42 c-53 -49 -78 -53 -112 -18 -29 28 -32 45 -9 45 56 0 124 67
124 122 0 46 -31 58 -152 58 -96 0 -110 -2 -129 -21z"/>
<path d="M2896 2207 c-16 -81 -7 -96 52 -81 30 8 28 24 -3 24 -21 0 -25 5 -25
31 0 24 4 30 20 27 31 -5 24 16 -9 23 -26 5 -30 3 -35 -24z"/>
<path d="M2813 2175 l-3 -55 35 0 c24 0 35 5 35 15 0 8 -9 15 -20 15 -17 0
-20 7 -20 40 0 64 -25 51 -27 -15z"/>
<path d="M4856 808 c-3 -13 -7 -53 -9 -90 l-3 -68 33 0 c77 0 112 98 57 154
-34 33 -72 35 -78 4z m59 -48 c7 -23 -2 -60 -16 -60 -5 0 -9 18 -9 40 0 42 14
54 25 20z"/>
</g>
</svg>
