<?xml version="1.0" encoding="UTF-8"?>
<svg id="Layer_1" xmlns="http://www.w3.org/2000/svg" xmlns:xlink="http://www.w3.org/1999/xlink" viewBox="0 0 2081.77 473.59">
  <defs>
    <style>
      .cls-1 {
        fill: #0f0f0f;
      }

      .cls-2 {
        font-size: 233px;
      }

      .cls-2, .cls-3, .cls-4 {
        fill: #232323;
      }

      .cls-2, .cls-5 {
        font-family: HanaleiFill-Regular, 'Hanalei Fill';
      }

      .cls-6, .cls-7, .cls-8, .cls-9, .cls-10, .cls-11, .cls-12, .cls-13, .cls-14, .cls-15, .cls-16, .cls-17 {
        stroke: #000;
      }

      .cls-6, .cls-7, .cls-18, .cls-13 {
        stroke-width: 3px;
      }

      .cls-6, .cls-7, .cls-18, .cls-19, .cls-20, .cls-17 {
        fill: none;
      }

      .cls-6, .cls-7, .cls-18, .cls-20, .cls-17 {
        stroke-linecap: round;
      }

      .cls-6, .cls-7, .cls-13 {
        stroke-linejoin: round;
      }

      .cls-7, .cls-21 {
        opacity: .25;
      }

      .cls-22 {
        fill: #1c1c1c;
      }

      .cls-23 {
        fill: url(#linear-gradient);
      }

      .cls-8 {
        fill: url(#linear-gradient-4);
      }

      .cls-8, .cls-9, .cls-10, .cls-11, .cls-18, .cls-12, .cls-14, .cls-15, .cls-19, .cls-16, .cls-20, .cls-17 {
        stroke-miterlimit: 10;
      }

      .cls-8, .cls-9, .cls-10, .cls-11, .cls-12, .cls-15, .cls-16, .cls-20, .cls-17 {
        stroke-width: 6px;
      }

      .cls-9 {
        fill: url(#linear-gradient-3);
      }

      .cls-10 {
        fill: url(#linear-gradient-2);
      }

      .cls-11 {
        fill: url(#linear-gradient-5);
      }

      .cls-18 {
        stroke: #ffe499;
      }

      .cls-24 {
        fill: #c4c4c4;
      }

      .cls-12 {
        fill: #c18244;
      }

      .cls-25 {
        fill: #a0a0a0;
      }

      .cls-5 {
        fill: #4d4d4d;
        font-size: 13.8px;
      }

      .cls-26 {
        fill: #9a9abd;
      }

      .cls-27 {
        fill: #ffe499;
      }

      .cls-28 {
        fill: #fff;
      }

      .cls-13 {
        fill: #ad3e00;
      }

      .cls-14 {
        stroke-width: 4px;
      }

      .cls-14, .cls-15 {
        fill: #ffcf64;
      }

      .cls-29 {
        fill: #c8c9df;
      }

      .cls-19 {
        stroke: #0f0f0f;
      }

      .cls-20 {
        stroke: #9b9b9b;
      }

      .cls-4 {
        font-family: HappyMonkey-Regular, 'Happy Monkey';
        font-size: 78px;
      }

      .cls-30 {
        letter-spacing: .04em;
      }

      .cls-31 {
        letter-spacing: .04em;
      }

      .cls-32 {
        letter-spacing: .04em;
      }

      .cls-33 {
        letter-spacing: .04em;
      }

      .cls-34 {
        letter-spacing: .03em;
      }

      .cls-35 {
        letter-spacing: .03em;
      }

      .cls-36 {
        letter-spacing: .04em;
      }

      .cls-37 {
        letter-spacing: .04em;
      }

      .cls-38 {
        letter-spacing: .01em;
      }
    </style>
    <linearGradient id="linear-gradient" x1="78.89" y1="66.65" x2="417.3" y2="429.55" gradientUnits="userSpaceOnUse">
      <stop offset="0" stop-color="#00bfe9"/>
      <stop offset="1" stop-color="#8ad0d5"/>
    </linearGradient>
    <linearGradient id="linear-gradient-2" x1="103.01" y1="243.2" x2="376.68" y2="401.2" gradientUnits="userSpaceOnUse">
      <stop offset="0" stop-color="#b2b2b2"/>
      <stop offset="1" stop-color="#f2f2f2"/>
    </linearGradient>
    <linearGradient id="linear-gradient-3" x1="200.06" y1="411.92" x2="281.61" y2="411.92" xlink:href="#linear-gradient-2"/>
    <linearGradient id="linear-gradient-4" x1="165.22" y1="440.52" x2="305.91" y2="440.52" xlink:href="#linear-gradient-2"/>
    <linearGradient id="linear-gradient-5" x1="105.16" y1="438.37" x2="136.32" y2="438.37" xlink:href="#linear-gradient-2"/>
  </defs>
  <g>
    <text class="cls-2" transform="translate(539.43 266.47)"><tspan class="cls-32" x="0" y="0">Lia</tspan><tspan class="cls-35" x="319.37" y="0">m</tspan><tspan class="cls-31" x="498" y="0" xml:space="preserve"> Cha</tspan><tspan class="cls-36" x="965.62" y="0">p</tspan><tspan class="cls-32" x="1093.62" y="0">man</tspan></text>
    <text class="cls-4" transform="translate(543.32 380.79)"><tspan class="cls-38" x="0" y="0">W</tspan><tspan class="cls-30" x="65.99" y="0">eb Design | </tspan><tspan class="cls-38" x="542.95" y="0">W</tspan><tspan class="cls-30" x="608.94" y="0">eb De</tspan><tspan class="cls-34" x="843.72" y="0">v</tspan><tspan class="cls-30" x="892.31" y="0">elopme</tspan><tspan class="cls-37" x="1192.37" y="0">n</tspan><tspan class="cls-33" x="1247.91" y="0">t</tspan></text>
  </g>
  <g>
    <path class="cls-23" d="M115.7,457.96C46.17,414,0,336.44,0,248.1,0,111.08,111.08,0,248.1,0s248.1,111.08,248.1,248.1c0,85.64-43.39,161.14-109.38,205.73l-271.11,4.13Z"/>
    <g>
      <polygon class="cls-3" points="350.41 284.35 354.93 286.36 353.39 288.02 354.7 289.7 354.24 291.43 354.87 293.11 351.13 295.12 353.56 296.68 354.42 298.35 354.22 300.12 355.59 301.72 355.26 303.5 351.46 305.71 352.09 307.4 353.21 309.03 353.71 310.72 354.05 312.44 354.46 314.15 355.92 315.71 357.68 317.23 355.74 319.27 354.05 321.27 355.73 322.8 355.35 324.62 356.65 326.2 355.84 328.08 357.53 329.6 358.61 331.21 359.91 332.78 360.48 334.47 359.32 336.4 356.73 338.55 358.98 339.98 360.25 341.55 359.01 343.5 358.35 345.36 357.19 347.29 360.13 348.63 358 350.69 362.9 351.76 363.22 353.48 361.56 355.48 362.37 357.14 361.89 358.97 359.18 361.09 360.57 362.67 362.99 364.11 362.15 365.99 363.43 367.59 364.67 369.2 362.47 371.24 364.02 372.82 361.82 374.84 363.09 376.46 363.25 378.2 364.48 379.83 363.37 381.72 366.39 383.17 362.31 385.35 363.12 387.02 364.98 388.61 366.2 390.26 367.57 391.91 362.7 394.07 364.4 395.69 364.79 397.41 363.79 399.23 364.48 400.93 367.63 402.49 364.16 404.43 366.42 406.07 366.87 407.8 368.03 409.52 363.81 411.4 367.75 413.06 367.57 414.83 366.51 416.6 368.77 418.36 364.39 420.07 366.63 421.86 365.05 423.56 367.29 425.4 365.93 427.08 364.99 428.76 363.91 430.41 364.3 432.17 365.67 434.07 366.98 436.03 367.44 437.91 362.26 438.78 364.7 441.02 364.64 442.81 361.92 443.89 364.1 446.35 362.63 447.72 362.78 449.68 360.65 449.03 359.36 449.14 357.59 452.55 355.83 448.19 354.07 452.84 352.31 449.84 350.55 451.76 348.79 450.59 347.03 450.58 345.27 452.07 343.51 453.43 341.75 448.36 339.99 449.33 338.23 448.5 336.46 450.44 334.7 448.94 332.94 453.53 331.18 449.42 329.42 453.29 327.65 451.92 325.89 449.76 324.13 450.01 322.37 449.4 320.61 450.96 318.84 452.64 317.08 453.59 315.32 450.77 313.55 452.67 311.79 450.37 310.03 450.97 308.27 453.59 306.5 453.4 304.74 452.47 302.98 450.34 301.21 451.39 299.45 453 297.69 450.25 295.92 452.43 294.16 449.06 292.39 452.28 290.63 452.99 288.87 448.43 287.1 450.62 285.34 451.06 283.58 450.02 281.82 453.55 280.06 452.44 278.3 450.11 276.54 450.07 274.77 451.14 273.01 448.54 271.25 451.15 269.48 448.45 267.72 451.61 265.95 451.51 264.19 452.59 262.42 450.7 260.66 450.99 258.89 451.26 257.12 452.3 255.36 448.21 253.59 448.38 251.82 450.42 250.06 449.1 248.29 452.33 246.53 453.41 244.76 453.18 242.99 448.88 241.22 448.19 239.45 451.59 237.68 451.05 235.9 450.16 234.15 448.29 232.41 450.27 230.66 451.05 228.91 448.64 227.16 450.69 225.42 448.84 223.67 449.06 221.93 452.49 220.18 453.57 218.43 450.59 216.69 450.22 214.94 452.25 213.19 449.53 211.44 449.88 209.69 450.32 207.94 449.73 206.2 449.69 204.45 449.94 202.7 451.91 200.96 450.27 199.21 449.93 197.46 450.78 195.71 451.55 193.96 449.56 192.21 451.3 190.46 451.18 188.71 449.61 186.97 449.04 185.22 452.35 183.47 449.35 181.72 452.53 179.97 452.04 178.22 452.45 176.47 452.22 174.72 451.57 172.97 452.26 171.22 451.26 169.47 450.16 167.72 449.35 165.97 451.25 164.22 449.63 162.47 451.28 160.72 450.45 158.97 448.84 157.23 448.57 155.48 453.29 153.74 448.1 151.99 448.85 150.23 451.28 148.48 452.91 146.74 452.79 144.99 452.17 143.24 448.15 141.48 449.39 139.73 448.22 137.98 451.45 136.23 451.61 134.48 452.18 132.73 450.12 130.97 450.01 129.22 448.18 127.47 449.3 125.72 451.97 123.97 451.82 122.21 452.81 120.46 453.36 118.7 449.88 116.95 450.74 115.19 448.31 113.43 452.37 112.08 449.26 111.54 449.01 109.7 447.9 110.59 445.69 106.58 445.18 107.85 442.92 109.87 440.57 109.18 438.98 107.37 437.61 109.63 435.41 106.57 434.2 107.34 432.32 107.78 430.51 104.25 429.18 107.59 427.07 108.13 425.3 104.11 423.87 107.41 421.91 106.78 420.22 103.61 418.6 107.83 416.73 107.48 415.01 104.37 413.31 104.9 411.56 104.39 409.81 103.94 408.04 102.96 406.26 104.54 404.55 105.9 402.85 106.2 401.11 104.29 399.27 104.44 397.52 108.23 396 106.08 394.11 107.44 392.46 103.89 390.44 103.77 388.66 108.24 387.29 106.19 385.35 107.81 383.75 106.43 381.86 108.92 380.37 108.62 378.58 105.97 376.53 109.64 375.2 106.8 373.1 109.02 371.61 105.78 369.43 108.32 367.99 109.56 366.39 108.42 364.47 107.61 362.59 110.86 361.28 107.89 359.08 108.19 357.35 110.93 355.99 109.74 354.03 108.99 352.14 111.11 350.7 113.15 349.25 110.34 347.02 112.23 345.55 110.79 343.53 110.77 341.75 113.82 340.49 113.14 338.59 114.52 337.05 115.23 335.4 114.66 333.52 113.35 331.5 113.83 329.81 115.14 328.26 114.62 326.39 116.72 324.99 114.47 322.79 113.96 320.91 118.86 320.05 117.19 317.95 118.03 316.33 119.27 314.78 116.33 312.43 119.74 311.31 116.78 308.95 118.43 307.48 121.07 306.21 122.1 304.63 121.53 302.74 121.84 301.01 121.11 299.09 121.02 297.28 123.59 296 120.18 293.55 122.58 292.23 120.4 290.02 121.08 288.37 120.09 286.4 124.69 285.49 122.11 283.22 121.89 281.4 126.61 280.49 124.38 278.3 126.78 276.94 126.4 275.1 126.28 273.3 124.96 271.31 124.93 269.54 123.63 267.62 127.26 266.32 125.55 264.39 128.43 262.92 126.6 260.96 128.04 259.39 127.17 257.5 128.91 256.03 125.76 253.64 126.77 252.03 131.12 251.22 130.73 249.36 127.91 246.81 128.51 245.13 131.83 244.3 129.92 241.84 128.93 239.61 133.29 239.31 132.62 237.19 132.69 235.32 132.8 233.44 134.9 232.44 134.64 230.38 138.68 230.42 135.28 226.72 135.92 225.03 137.74 224 139.33 222.87 139.9 221.16 140.05 219.16 143.55 219.34 145.31 218.45 143.83 215.29 146.02 214.72 145.65 212.24 149.5 213.03 148.08 209.65 150.98 209.79 150.87 207.39 151.85 205.91 152.19 203.82 153.24 202.36 156.14 202.74 155.55 199.62 159.88 201.64 160.86 200.16 161.85 198.68 163.59 198.05 163.23 194.9 164.65 193.87 165.89 192.59 169.04 193.87 170.13 192.44 169.6 188.66 172.73 190.12 172.82 187.09 175.62 188.2 177.48 187.93 177.74 184.97 180.62 186.49 181.02 183.63 183.51 184.61 182.95 179.69 184.52 178.82 186.98 179.85 189.48 181.11 191.2 180.73 192.43 179.18 193.05 176.03 196.18 179.27 197.59 178.11 198.14 174.44 200.58 176.17 201.21 172.36 203.05 172.26 205.07 172.85 206.37 170.89 208.42 171.68 210.99 174.92 211.71 170.18 214.34 174.21 215.93 173.36 217.59 172.86 219.1 171.31 220.43 168.26 222.34 169.15 224.42 171.86 225.9 169.18 227.56 167.82 229.34 167.76 231.13 168.06 232.91 168.12 234.67 167.41 236.45 167.95 238.22 168.51 239.94 171.48 241.72 169.45 243.55 168.01 245.11 171.5 246.84 171.58 248.76 169.52 250.33 171.46 252.23 170.18 254.29 167.94 255.52 171.93 257.09 173.16 258.87 173.01 260.53 173.52 262.75 171.33 263.77 174.88 266.68 170.01 267.74 173.19 269.37 173.89 270.8 175.27 273.44 172.48 274.98 173.54 275.52 177.59 277.4 177.41 279.1 177.83 280.52 178.97 282.3 179.18 285.15 176.82 285.2 181.21 287.96 179.28 288.46 182.4 290.6 181.93 293.68 179.71 295.19 180.7 296.37 182.3 297.53 183.86 299.83 183.43 301 184.97 302.53 185.87 302.87 188.65 303.57 190.75 306.87 188.99 306.61 192.45 307.37 194.34 309.51 194.35 313.18 192.47 313.84 194.51 316.1 194.57 317.62 195.56 315.92 200.2 319.26 199.1 321.64 199.16 321.04 202.36 321.97 203.91 323.18 205.18 325.61 205.2 323.82 209.03 325.76 209.53 326.17 211.37 330.21 210.06 330.69 211.88 332.96 212.36 331.27 215.88 331.49 217.87 333.33 218.69 334.83 219.77 338.64 219.37 336.77 222.69 340.1 222.72 339.17 225.34 341.95 225.81 341.24 228.23 341.86 229.91 341.98 231.82 344.56 232.53 342.96 235.22 343.17 237.03 346.3 237.61 345.29 239.92 347.73 240.87 348.58 242.46 348.66 244.31 350.21 245.69 347.48 248.37 347.41 250.19 351.04 251.03 352.63 252.49 352.48 254.37 352.14 256.27 350.45 258.39 353.75 259.61 349.92 261.99 352.21 263.44 353.78 265.04 352.62 266.94 350.99 268.82 352.85 270.45 355.2 272.13 352.6 273.98 351.5 275.74 353.82 277.51 353.7 279.29 353.47 281.06 349.95 282.59 350.41 284.35"/>
      <g>
        <g id="_x32_r34Aj">
          <g>
            <path class="cls-29" d="M308.67,142.86c.19.03.52.02.39.29-.09.19-.4.1-.53-.14.05-.05.09-.1.14-.15Z"/>
            <path class="cls-26" d="M402.89,150.8c-.17.06-.34.13-.51.19.12-.21.28-.28.51-.19Z"/>
          </g>
        </g>
        <path class="cls-3" d="M193.71,221.53c.29,1.43.57,2.87.92,4.59-3.6-2.42-5.65-5.86-8.07-9.27.12,1.85.24,3.71.37,5.72-3.21-2.69-4.46-6.29-5.37-10.31-.48,1.42-.96,2.84-1.45,4.27l-.57.13c-1.31-3.1-2.61-6.21-3.99-9.48-.2,1.01-.4,2.02-.7,3.58-.82-1.82-1.54-3.2-2.06-4.66-.5-1.43-.34-3.25-2.62-3.41-.07.35-.16.77-.39,1.83-1.12-2.35-2.03-4.24-3.1-6.49-.21,1.62-.38,2.94-.61,4.72-2.21-3.24-2.67-6.38-2.35-10.21-.75,1.01-1.19,1.59-1.88,2.51v-9.19c-.57.37-1.08.71-1.83,1.2.55-1.93,1.04-3.66,1.68-5.93-1.02.84-1.6,1.31-2.17,1.79-.14-.04-.27-.08-.41-.13.64-2.39,1.28-4.77,1.93-7.18-1.01.39-2.01.78-3.39,1.32,1-1.38,1.74-2.39,2.47-3.41-.09-.1-.18-.2-.27-.31-.31.12-.62.24-1.38.55.81-2.75,1.54-5.22,2.32-7.84-1.06.43-1.99.8-2.95,1.19,1.03-2.2,1.99-4.28,2.96-6.36-.18-.1-.36-.21-.54-.31-.31.17-.62.34-1.38.74.69-2.38,1.28-4.43,1.97-6.79-.77.34-1.29.57-1.82.81,1.45-3.12,2.85-6.14,4.33-9.31-1.07.61-2.07,1.19-3.07,1.77-.08-.11-.16-.22-.24-.32,1.39-1.58,2.78-3.17,4.42-5.03-1.15.37-1.94.63-3.03.98,1.82-2.25,3.43-4.25,5.05-6.26-.09-.11-.19-.23-.28-.34-.42.15-.84.31-1.63.6.63-1.29,1.14-2.32,1.77-3.6-.74.2-1.2.33-1.65.45,1.41-2.04,2.83-4.09,4.25-6.14l-.41-.35c-.63.5-1.27,1-1.9,1.5-.15-.11-.31-.21-.46-.32,1.03-1.54,2.07-3.09,3.14-4.69-.39-.05-.94-.13-1.94-.27,1.43-.85,2.56-1.52,3.9-2.32-.7-.15-1.21-.26-1.99-.42.95-.66,1.74-1.2,2.67-1.85-.7-.45-1.33-.85-2.2-1.4,1.46-.55,2.7-1.02,4.34-1.64-.93-.36-1.46-.56-2.06-.79.22-.28.45-.56.62-.77-1.05-.8-2.47-1.39-3.07-2.44-1.23-2.15-3.72-2.75-5.07-4.65-1.08-1.52-2.21-3.01-3.17-4.6-.32-.53-.18-1.33-.26-2.1,0,0,.3-.1.62-.2-1.44-1.34-2.12-2.85-1.65-4.82.13-.55-.21-1.21-.21-1.82,0-1.33.02-2.67.13-4,.1-1.19.32-2.37.53-3.54.06-.36.42-.71.4-1.05-.16-2.68,1.37-4.52,3.09-6.45-.39-.2-.81-.42-1.26-.65,1.32-.56,2.59-1.1,3.96-1.68-.3-.44-.5-.73-.71-1.03.13-.11.21-.22.32-.26,1.45-.6,2.93-1.13,4.34-1.81,1.45-.71,3.04-1.34,4.18-2.42,1.09-1.03,2.14-1.04,3.39-.99.33.01.66-.32,1.01-.42.66-.2,1.33-.38,2.01-.5.75-.13,1.51-.24,2.27-.26,1.01-.02,2.16.37,3.02.02,1.58-.65,1.4,1.36,2.57,1.27.07-.23.15-.54.29-1.02.57.67,1.04,1.22,1.49,1.77.42.51.81,1.04,1.38,1.76.09-.68.15-1.13.23-1.7,1.94,2.95,2.55,3.49,3.39,2.8.9,2.08,1.78,4.11,2.69,6.23,3.52-1.28,6.89-2.62,10.34-3.74,9.87-3.22,20-5.04,30.38-4.18,3.64.3,7.13.35,10.75-.02,9.84-1.02,19.27,1.22,28.54,4.24,3.27,1.06,6.46,2.35,9.96,3.63.69-1.54,1.44-3.21,2.25-5.01.2.21.39.41.71.75.53-.99,1.04-1.93,1.58-2.93.3.25.57.47.61.5.86-.82,1.62-1.53,2.59-2.45.06.61.11,1.06.15,1.53.92-.81,1.7-1.68,2.64-2.28.98-.63,2.12-1.01,3.3-1.54-.05.33-.12.73-.19,1.19,1.58-.47,3.14-.93,4.92-1.45-.1.54-.16.86-.19,1.05,1.85.34,3.71.67,5.63,1.02-.02.2-.17.77-.07.82,1.75.85,3.7,1.4,5.25,2.51,1.45,1.03,3.59,1.1,4.37,3.27.25.69,1.76.93,2.88,1.47-.65.11-1.12.19-1.74.3,2.24,2.02,3.21,4.38,3.34,7.23.1,2.36.69,4.69.88,7.05.1,1.17-.44,2.4-.27,3.54.36,2.43-.92,4.46-1.38,6.68-.23,1.13-1.21,2.11-1.89,3.13-.23.35-.55.65-.84.95-1.25,1.29-2.47,2.61-3.77,3.84-1.23,1.17-2.56,2.22-3.8,3.38-.09.08.23.6.36.93-.61.2-1.21.39-2.39.78,1.69.61,2.87,1.03,4.2,1.5-.57.52-1.04.95-1.7,1.54,1.06.69,2.07,1.34,3.41,2.21h-2.65c-.05.13-.1.25-.15.38,1.29.6,2.58,1.21,4.26,2-1.19.18-1.93.29-2.84.43,1.44,1.73,2.77,3.33,4.1,4.93l-.24.31c-.94-.67-1.87-1.34-2.81-2.01l-.3.35c2,2.21,4.01,4.42,6.01,6.63-.06.13-.12.27-.18.4-1.02-.35-2.03-.7-3.05-1.05-.08.12-.17.25-.25.37,1.44,1.16,2.89,2.32,4.63,3.72-1.02-.08-1.69-.13-2.48-.2.68,1.72,1.34,3.39,2.2,5.56-1.11-.53-1.7-.81-2.8-1.34,1.8,2.12,3.22,3.79,4.65,5.47-.11.15-.21.3-.32.46-.77-.34-1.53-.67-2.54-1.11,1.62,4.51-.14,9.54,3.41,13.51-.2.08-.39.16-.59.25-.43-.36-.86-.73-1.29-1.09-.16.08-.33.16-.49.24,1.11,2.3,2.21,4.59,3.35,6.95-.87-.41-1.84-.88-3.02-1.43.98,2.85,1.92,5.55,2.91,8.42-.48-.14-.82-.24-1.47-.42.7,1.19,1.29,2.19,2.07,3.5-1.13-.52-2.02-.93-3.14-1.45.5,2.46.97,4.78,1.45,7.11-.13.07-.26.13-.39.2-.66-.63-1.32-1.26-1.99-1.89-.11.06-.23.12-.34.17.53,1.68,1.07,3.36,1.68,5.3-.54-.28-.93-.49-1.36-.72v8.79c-.58-.53-1.02-.93-1.39-1.27-.42,3.32-.84,6.66-1.26,9.99-.21,0-.42-.02-.63-.03-.41-1.46-.82-2.91-1.27-4.54-1.13,2.36-2.16,4.51-3.2,6.67-.17-.07-.35-.14-.52-.21-.07-.7-.14-1.4-.19-1.92-.63.15-1.17.28-1.79.43-.81,2.2-1.73,4.69-2.65,7.18l-.45-.11c-.23-.91-.45-1.82-.73-2.91-1.43,3.34-2.76,6.43-4.28,9.97-.69-1.93-1.21-3.4-1.73-4.86-.17,0-.34-.01-.51-.02-.48,4.21-1.75,8-5.17,10.47.31-2.08.63-4.29,1-6.77-2.85,3.78-5.39,7.15-7.93,10.52-.16-.11-.33-.23-.49-.34.34-1.45.69-2.89,1.09-4.6-2.26,2.31-4.28,4.38-6.3,6.44-.17-.13-.33-.25-.5-.38.39-1.13.79-2.27,1.27-3.65-2.34,1.96-4.43,3.71-6.52,5.46l-.44-.26c.26-.79.52-1.57.91-2.78-1.73,1.3-3.11,2.34-4.81,3.62.14-1.29.23-2.21.36-3.46-1.23,1.44-2.25,2.63-3.27,3.82-.15-.08-.3-.16-.45-.24.15-.55.3-1.1.47-1.76-1.92,1.39-3.73,2.7-5.54,4.01-.15-.11-.3-.22-.45-.33.42-1.02.84-2.04,1.26-3.05-.07-.05-.14-.09-.21-.14-2.16,2.24-4.33,4.48-6.49,6.72-.2-.11-.4-.22-.6-.32.26-1.35.51-2.71.88-4.64-2.46,2.34-4.57,4.36-6.93,6.6.31-1.5.59-2.85.97-4.72-2.3,2.15-4.31,4.02-6.35,5.91.19-.72.41-1.5.73-2.68-1.59,1.36-2.86,2.45-4.13,3.54-.13-.06-.26-.12-.39-.18.42-1.24.84-2.48,1.36-4.03-2.69,1.94-2.52,4.98-3.71,7.52-1.78-2.45-3.48-4.8-5.18-7.14-.15.09-.31.18-.46.27.25,1.03.49,2.06.8,3.35-1.79-1.7-3.34-3.17-5.25-4.98.28,1.56.46,2.57.64,3.59.09-.12.19-.25.28-.37-1.82-1.87-3.64-3.73-5.46-5.6-.25.22-.51.43-.76.65.24,1.37.47,2.75.73,4.2-2.29-1.88-4.46-3.68-6.97-5.74.37,1.8.64,3.16.97,4.76-2.29-2.41-4.36-4.58-6.76-7.11.15,1.28.24,2.05.36,3.16-1.54-1.67-2.92-3.16-4.29-4.66-.16.11-.33.23-.49.34.06.87.12,1.74.22,3.14-1.52-1.45-2.73-2.6-4.22-4.01.15,1.24.27,2.17.45,3.62-1.51-1.41-2.73-2.54-3.99-3.71v2.57c-1.9-1.57-3.5-2.89-5.38-4.45.37,1.21.65,2.16,1.06,3.5-3.05-1.82-4.9-4.31-7.03-6.78Z"/>
        <g>
          <path class="cls-28" d="M276.37,137.56c-.24-.96-.74-1.84-1.5-2.49-2.3-1.93-4.6-2.07-6.82-.4-1.6,1-2.67,2.78-2.67,4.81,0,3.13,2.54,5.67,5.67,5.67s5.67-2.54,5.67-5.67c0-.68-.12-1.32-.34-1.92Z"/>
          <circle class="cls-22" cx="270.16" cy="141.23" r="1.31"/>
        </g>
        <g>
          <path class="cls-28" d="M217.59,134.29c-.85-.51-1.82-.78-2.82-.7-2.99.26-4.72,1.79-5.1,4.55-.42,1.84.07,3.85,1.51,5.29,2.21,2.21,5.81,2.21,8.02,0s2.21-5.81,0-8.02c-.48-.48-1.02-.85-1.6-1.12Z"/>
          <circle class="cls-22" cx="215.8" cy="140.33" r="1.98" transform="translate(-38.41 180.78) rotate(-42.08)"/>
        </g>
        <path class="cls-27" d="M265.04,177.87c1.75,8.61,2.05,21.39-1.47,27.69-4.4,7.88-12.37,11.14-19.73,11.14s-15.86-3.13-20.25-10.83c-3.62-6.34-2.72-19.24-.94-27.99,4.17-20.5,7.66-35.29,21.2-36.21,12.86-.87,17.03,15.71,21.2,36.21Z"/>
        <path class="cls-1" d="M255.99,192.71c0,5.54-5.47,10.03-12.22,10.03s-12.22-4.49-12.22-10.03,5.47-4.8,12.22-4.8,12.22-.74,12.22,4.8Z"/>
        <path class="cls-19" d="M243.78,202.74h0c0,1.37.55,2.57,1.39,3.48,7,7.53,12.3-3.07,14.28-4.44"/>
        <line class="cls-18" x1="268.23" y1="126.59" x2="277.55" y2="128.92"/>
        <line class="cls-18" x1="216.45" y1="126.59" x2="207.14" y2="128.92"/>
        <g>
          <path class="cls-28" d="M276.61,137.54c-.24-.96-.74-1.84-1.5-2.49-2.3-1.93-4.6-2.07-6.82-.4-1.6,1-2.67,2.78-2.67,4.81,0,3.13,2.54,5.67,5.67,5.67,3.13,0,5.67-2.54,5.67-5.67,0-.68-.12-1.32-.34-1.92Z"/>
          <circle class="cls-22" cx="271.07" cy="140.54" r="1.98" transform="translate(126.45 409.46) rotate(-89.13)"/>
        </g>
      </g>
      <path class="cls-19" d="M244.66,205.23c-7,7.53-12.3-3.07-14.28-4.44"/>
    </g>
    <g>
      <path class="cls-13" d="M181.77,95.86c3.15-8.33,19.36-9.34,19.17-14.17-.07-1.91-2.67-3.04-2.13-4.36.79-1.93,6.66-.31,7.46-2.18.65-1.51-2.91-3.19-3.2-5.45-.71-5.61,18.74-15.36,40.47-17.44,5.04-.48,31.47-3.01,37.28,8.72,1.6,3.24.69,5.66,3.2,9.81,3.07,5.08,6.71,4.52,14.91,9.81,4.77,3.08,11.29,7.39,14.91,15.26,1.87,4.05,3.08,6.68,2.13,8.72-3.58,7.69-31.28-7.52-66.03-5.45-34.74,2.07-55.43,20.17-64.97,9.81-2.85-3.09-4.8-8.83-3.2-13.08Z"/>
      <path class="cls-13" d="M318.63,99.67l-27.21-10.22c-30.11-11.31-63.26-10.66-92.93,1.82l-22.58,9.49-2.24,2.95c-7.3,9.59-10.36,21.86-8.45,33.86l.04.26,9.21-8.63c7.08-6.64,15.46-11.65,24.59-14.72l5.41-1.82c4.13-1.39,8.36-2.44,12.66-3.14l20.81-3.39c6.33-1.03,12.78-1.11,19.14-.24l20.64,2.84c3.63.5,7.21,1.33,10.69,2.48l5.53,1.83c10.55,3.48,19.75,10.31,26.27,19.49l3.75,5.29.06-.24c2.95-12.79,1.08-26.24-5.25-37.67l-.13-.24Z"/>
      <path class="cls-7" d="M193.49,94.77l-.09.24c-2.67,6.75-3.45,14.13-2.26,21.31l.22,1.34"/>
      <path class="cls-7" d="M202.01,90.41l-.18.65c-1.97,7.05-1.97,14.53,0,21.58l.18.65"/>
      <path class="cls-7" d="M212.66,87.14l-.8,4.48c-.88,4.96-.84,10.05.13,14.99l.67,3.42"/>
      <path class="cls-7" d="M225.44,83.87l-.22,1.2c-1.26,6.8-1.31,13.78-.15,20.6l.37,2.18"/>
      <path class="cls-7" d="M234.1,83.99l.57,2.92c1.04,5.31,1.56,10.7,1.56,16.11v2.76"/>
      <path class="cls-7" d="M245.67,82.78l.89,6.07c.47,3.22.63,6.47.47,9.72l-.29,6.02"/>
      <path class="cls-7" d="M254.19,83.87l.81,2.85c1.55,5.42,2.09,11.09,1.6,16.72l-.29,3.32"/>
      <path class="cls-7" d="M264.84,84.96l1.05,5.31c.7,3.57,1.06,7.19,1.07,10.83v5.66"/>
      <path class="cls-7" d="M274.43,86.05l.76,3.97c.88,4.63,1.33,9.33,1.35,14.04l.02,4.88"/>
      <path class="cls-7" d="M284.02,88.23l.94,4.42c1.16,5.46,1.25,11.11.27,16.61l-.14.77"/>
      <path class="cls-7" d="M293.6,90.41l.82,6.75c.65,5.39.38,10.85-.82,16.14h0"/>
      <path class="cls-7" d="M303.07,94.33l1.83,10.61c.38,2.22.56,4.47.52,6.73l-.1,5.99"/>
      <g class="cls-21">
        <path class="cls-6" d="M273.36,64.25l7.32,10.05c2.09,2.87,3.76,5.35,4.74,9.14.39,1.53,1.51,2.77,2.96,3.33l.14.05c.55.21,1.13.34,1.72.38l6.72.46c2.08.35,4.04,1.23,5.7,2.55l1.6,1.28"/>
        <path class="cls-6" d="M262.71,57.7v2.34c.03,4.48,2.28,8.64,5.98,11.03h0c.86.56,1.5,1.41,1.8,2.42l1.8,6.02"/>
        <path class="cls-6" d="M223.31,57.7l-.23,2.28c-.35,3.39-2.06,6.48-4.72,8.53l-1.07.82c-1.85,1.42-3.26,3.37-4.06,5.59l-1.64,4.58"/>
        <path class="cls-6" d="M240.35,56.61h0c.69,1.97.02,4.17-1.64,5.4l-.21.16c-.09.07-.18.13-.27.19l-2.3,1.46c-2.47,1.56-4.28,4.03-5.04,6.9l-1.18,3.34"/>
        <path class="cls-6" d="M238.22,62.07l.71,1.21c1.52,2.6,2.13,5.66,1.72,8.66l-.29,2.12"/>
        <path class="cls-6" d="M214.79,75.15l4.63-1.19c3.24-.83,6.64-.72,9.81.32l2.67.87c2.89.95,5.97,1.13,8.95.52l8.01-1.63"/>
      </g>
      <path class="cls-7" d="M314.2,98.66l2.9,10.61c.09.51.22,1.24.37,2.1.91,5.2.99,10.52.25,15.74l-.2,1.42"/>
      <path class="cls-7" d="M184.3,98.02c-2.67,6.75-5.72,12-3.32,24.58"/>
    </g>
    <g>
      <path class="cls-15" d="M419.28,423.66c.32-5.87-4.77-12.99-11.73-14.29l.38-3.58c.28-3.33-2.35-6.19-5.69-6.19h-34.9c-3.34,0-5.97,2.86-5.69,6.19l2.48,29.78c.53,6.42,5.9,11.35,12.34,11.35h16.65c6.44,0,11.8-1.98,12.34-8.4l.16-1.88c7.37-.29,13.34-6.93,13.68-12.98Z"/>
      <path class="cls-14" d="M405.95,417.11c3.26.23,5.72,3.05,5.49,6.31s-3.05,5.72-6.31,5.49l.83-11.8Z"/>
    </g>
    <path class="cls-17" d="M378.5,375.74h0c-1.38,2.76-1.24,6.02.36,8.66h0c1.16,1.91,1.32,4.26.42,6.31l-.78,1.79"/>
    <path class="cls-20" d="M401,375.93h0c-1.38,2.76-1.24,6.02.36,8.66h0c1.16,1.91,1.32,4.26.42,6.31l-.78,1.79"/>
    <path class="cls-20" d="M389.34,371.8h0c-1.38,2.76-1.24,6.02.36,8.66h0c1.16,1.91,1.32,4.26.42,6.31l-.78,1.79"/>
    <g>
      <g>
        <rect class="cls-10" x="99.84" y="236.91" width="280.01" height="170.57" rx="16.05" ry="16.05"/>
        <g>
          <circle class="cls-24" cx="239.95" cy="302.48" r="10.35"/>
          <text class="cls-5" transform="translate(233.15 307.63)"><tspan x="0" y="0">LC</tspan></text>
        </g>
      </g>
      <circle class="cls-25" cx="243.3" cy="384.31" r="7.39"/>
      <path class="cls-9" d="M252.72,376.92h-23.78c-7.35,0-13.41,3.51-13.79,7.99l-15.1,62.01h81.55l-15.1-62.01c-.38-4.48-6.44-7.99-13.79-7.99Z"/>
    </g>
    <rect class="cls-8" x="165.22" y="434.11" width="140.69" height="12.82" rx="6.41" ry="6.41"/>
    <path class="cls-11" d="M129.91,446.92h-18.34c-3.53,0-6.41-2.88-6.41-6.41h0c0-3.53,2.88-8.38,6.41-8.38h0c5.73-3.08,12.61-3.08,18.34,0h0c3.53,0,6.41,4.86,6.41,8.38h0c0,3.53-2.88,6.41-6.41,6.41Z"/>
    <path class="cls-16" d="M433.09,463.19c0,4.08-78.84,7.39-183.39,7.39s-189.3-3.31-189.3-7.39,84.75-7.39,189.3-7.39,183.39,3.31,183.39,7.39Z"/>
    <rect class="cls-12" x="69.28" y="446.92" width="353.96" height="17.75" rx="7" ry="7"/>
  </g>
</svg>