<?xml version="1.0" encoding="UTF-8"?> <svg xmlns="http://www.w3.org/2000/svg" id="Logo" width="180" height="66.453" viewBox="0 0 180 66.453"><g id="Group_701" data-name="Group 701" transform="translate(118.8 22.715)"><g id="Group_700" data-name="Group 700"><path id="Path_631" data-name="Path 631" d="M116.632,42.6,111.74,54.186a.786.786,0,0,0,.724,1.094h24.292V42.12h-19.4A.786.786,0,0,0,116.632,42.6Z" transform="translate(-102.508 -42.12)" fill="#33a5de"></path><path id="Path_632" data-name="Path 632" d="M111.275,55.288l-4.893,11.585a.787.787,0,0,0,.726,1.094H139.2V54.807H112A.786.786,0,0,0,111.275,55.288Z" transform="translate(-106.319 -33.094)" fill="#33a5de"></path></g></g><g id="Group_705" data-name="Group 705"><path id="Path_633" data-name="Path 633" d="M33.619,28.821l7.792,18.451a.726.726,0,0,0,1.338,0l7.792-18.453a.872.872,0,0,0-.8-1.21H34.423A.873.873,0,0,0,33.619,28.821Z" transform="translate(-33.55 -27.609)" fill="#33a5de"></path><g id="Group_704" data-name="Group 704" transform="translate(1.062 3.274)"><g id="Group_703" data-name="Group 703" style="mix-blend-mode: normal;isolation: isolate"><g id="Group_702" data-name="Group 702"><path id="Path_634" data-name="Path 634" d="M210.651,29.522H146.827a2.46,2.46,0,0,0-2.265,1.5L126.8,73.037a.7.7,0,0,1-1.3,0L107.733,31.022a2.459,2.459,0,0,0-2.265-1.5H51.212L44.134,46.256a2.963,2.963,0,0,1-5.456,0L34.17,35.594V89.9a2.456,2.456,0,0,0,2.458,2.454h9.6A2.456,2.456,0,0,0,48.691,89.9V43.668a1.414,1.414,0,0,1,1.414-1.412H64.114a1.415,1.415,0,0,1,1.416,1.412V89.9a2.455,2.455,0,0,0,2.457,2.454h9.6A2.455,2.455,0,0,0,80.05,89.9V43.668a1.414,1.414,0,0,1,1.416-1.412H95.782a1.413,1.413,0,0,1,1.3.863L117.418,91.2a2.459,2.459,0,0,0,2.265,1.5h12.928a2.459,2.459,0,0,0,2.265-1.5l20.333-48.082a1.413,1.413,0,0,1,1.3-.863h23.821a1.414,1.414,0,0,1,1.416,1.412V89.9a2.456,2.456,0,0,0,2.458,2.454h9.6a2.455,2.455,0,0,0,2.457-2.454V43.668a1.415,1.415,0,0,1,1.416-1.412h12.966a2.456,2.456,0,0,0,2.457-2.456V31.976A2.456,2.456,0,0,0,210.651,29.522Z" transform="translate(-34.17 -29.522)" fill="#fff"></path></g></g></g></g></svg> 