<?xml version="1.0" encoding="UTF-8"?>
<svg id="Layer_1" xmlns="http://www.w3.org/2000/svg" viewBox="0 0 596.46 420.62">
  <g id="joaVwe">
    <g>
      <path d="M574.09,0c-5.62,5.68-10.01,10.26-14.53,14.68-43.65,42.63-87.34,85.22-130.99,127.84-42.89,41.89-85.75,83.82-128.64,125.72-8.89,8.68-16.16,8.54-24.7-.47-37.98-40.03-75.92-80.11-113.93-120.11C116.44,100.45,71.51,53.31,26.62,6.12c-1.53-1.61-2.93-3.36-5.32-6.12h552.79Z"/>
      <path d="M20.31,420.62c4.9-5.83,8.78-10.61,12.82-15.23,39.54-45.17,79.13-90.3,118.67-135.48,11.35-12.97,22.55-26.1,33.93-39.03,5.89-6.69,6.03-6.59,12.01-.32,19.61,20.55,39.15,41.18,58.83,61.67,17.49,18.21,43.67,18.51,61.59.94,23.48-23.02,47.04-45.94,70.45-69.04,3.28-3.24,5.45-3.74,8.83.02,30.7,34.1,61.55,68.05,92.39,102.01,25.81,28.43,51.68,56.8,77.5,85.22,2.44,2.68,4.75,5.49,7.97,9.23H20.31Z"/>
      <path d="M596.46,23.58v373.52c-2.34-2.11-3.98-3.37-5.37-4.89-23.16-25.5-46.27-51.07-69.44-76.56-34.34-37.78-68.69-75.55-103.15-113.21-2.95-3.22-2.33-5.06.43-7.76,22.37-21.77,44.62-43.68,66.95-65.5,26.91-26.31,53.85-52.59,80.79-78.87,9.43-9.2,18.91-18.35,28.36-27.52.47.27.95.54,1.42.81Z"/>
      <path d="M0,24.08c2.25,1.84,4.22,3.13,5.82,4.8,19.76,20.7,39.49,41.45,59.19,62.21,33.56,35.35,67.02,70.82,100.76,105.98,4.16,4.34,3.62,6.63,0,10.75-34.2,38.8-68.22,77.77-102.28,116.71-20.24,23.14-40.43,46.33-60.67,69.48-.51.58-1.25.93-2.83,2.07V24.08Z"/>
    </g>
  </g>
</svg>