<?xml version="1.0" encoding="UTF-8"?>
<link rel="stylesheet" href="../../../stylesheets/css/index.css" />
<svg id="Layer_1" xmlns="http://www.w3.org/2000/svg" viewBox="0 0 600.01 600.04">
  <g id="uT8hSz.tif">
    <g>
      <path fill="currentColor" d="M600.01,169.97v260.98c-.43,3.73-.97,7.45-1.27,11.2-2.79,35.23-13.02,67.83-35.43,95.63-33.43,41.48-78.39,59.77-130.42,61.64-32.29,1.16-64.65.33-96.98.33-55.52,0-111.04.41-166.55-.21-39.88-.45-76.48-12.02-107.78-37.43C20.04,528.37,1.04,483.35.5,430.89c-.88-86.28-.38-172.57-.17-258.85.03-11.09,1.23-22.26,2.87-33.24C13.31,71.16,63.37,18.55,130.16,5.31c11.52-2.29,23.25-3.57,34.88-5.31,89.67,0,179.34,0,269.01,0,6.81.88,13.61,1.78,20.43,2.62,67.91,8.37,122.75,56.76,138.74,123.29,3.46,14.4,4.59,29.36,6.79,44.06ZM299.28,544.38c37.91,0,75.82.06,113.72-.05,9.13-.03,18.32-.05,27.38-1.05,44.27-4.87,77.83-25.39,96.11-67.36,7.5-17.22,9.9-35.5,9.89-54.18-.03-79.61.02-159.21-.07-238.82,0-8.46-.13-17-1.28-25.35-4.81-34.93-19.4-64.29-50.12-83.64-19.96-12.57-42.25-17.67-65.61-17.71-84.96-.16-169.92-.1-254.87-.01-6.89,0-13.83.47-20.65,1.43-42.57,5.96-74.02,26.81-89.8,68.09-6.37,16.66-8.44,34.11-8.44,51.84-.02,81.17-.1,162.34.1,243.5.03,10.43.73,21.01,2.55,31.27,7.11,40.12,28.59,68.94,67.54,83.47,16.72,6.24,34.1,8.53,51.82,8.56,40.58.08,81.17.03,121.75.03Z"/>
      <path fill="currentColor" d="M454.31,299.19c-.11,85.4-69.64,154.64-155.13,154.47-85.58-.17-154.45-69.57-154.15-155.33.3-84.99,69.96-154.17,155.01-153.95,84.79.23,154.38,70.05,154.27,154.8ZM299.46,397.94c54.5.15,99.35-44.42,99.47-98.86.12-54.16-45.03-99.35-99.24-99.3-54.14.05-98.65,44.47-98.92,98.73-.27,54.59,44.08,99.28,98.68,99.43Z"/>
      <path fill="currentColor" d="M460.28,175.55c-19.41-.08-34.72-15.5-34.71-34.95.01-19.65,15.73-35.11,35.46-34.91,19.16.2,34.71,16.12,34.51,35.32-.2,19.22-15.92,34.62-35.26,34.53Z"/>
    </g>
  </g>
</svg>